<svg width="232" height="83" viewBox="0 0 232 83" fill="none" xmlns="http://www.w3.org/2000/svg">
<g id="Fsel-logo">
<path id="Vector" fill-rule="evenodd" clip-rule="evenodd" d="M60.0035 78.6457C54.5986 81.1816 48.5514 82.602 42.167 82.602C26.5828 82.602 13.0039 74.1459 5.88379 61.6325L8.87377 60.2874C10.5238 59.4727 11.9962 60.0844 13.2679 61.1733L22.0532 69.2988C21.1589 69.5165 20.2566 69.7679 19.3472 70.055C27.6537 69.3176 29.7444 69.3047 38.5196 68.5712C34.4567 67.9288 29.379 67.8051 23.8809 68.8949C16.0059 64.4852 10.6924 56.143 10.6924 46.5743C10.6924 36.2385 16.8822 27.334 25.814 23.2738L29.2195 36.7206L27.3004 22.6521L27.3084 22.6492C27.3165 22.6472 27.2603 22.3334 27.2211 22.0256C27.1218 21.2387 27.4068 21.0199 28.2298 20.9209L34.5892 20.2944C35.7555 20.231 36.1027 20.2736 35.9452 21.4693L33.3215 41.4331C37.8281 42.0062 41.3881 45.5637 41.909 50.0337L62.6833 47.6453C62.2487 58.0939 55.4758 66.9301 46.0553 70.5143C51.2473 72.3227 55.9727 75.108 60.0035 78.6457ZM31.0582 61.9542C34.0482 61.9542 36.728 60.6487 38.5497 58.5849C36.8063 60.0795 34.531 60.9842 32.0428 60.9842C26.5557 60.9842 22.1073 56.5894 22.1073 51.1691C22.1073 48.7004 23.0307 46.4456 24.5523 44.7203C22.4536 46.5199 21.1257 49.1756 21.1257 52.1381C21.1257 57.5594 25.5721 61.9542 31.0582 61.9542ZM19.008 36.0019C17.7132 36.0019 16.6634 37.0383 16.6634 38.3152C16.6634 39.592 17.7132 40.6274 19.008 40.6274C19.5389 40.6274 20.0297 40.4532 20.4232 40.1602C24.0414 42.8862 26.9481 46.408 28.6845 49.424C28.4065 49.9447 28.2479 50.5386 28.2479 51.1691C28.2479 53.2358 29.9461 54.9116 32.0428 54.9116C34.1375 54.9116 35.8368 53.2358 35.8368 51.1691C35.8368 49.2043 34.3011 47.5928 32.3489 47.4394C32.7484 48.0036 33.1047 48.5391 33.5112 49.2201C33.0013 48.6222 32.5256 47.9709 31.9796 47.4275H31.9756C29.4664 44.1631 24.6537 40.858 21.2281 39.0625C21.3094 38.8279 21.3536 38.5765 21.3536 38.3152C21.3536 37.0383 20.3027 36.0019 19.008 36.0019ZM43.2148 5.41924L45.6739 6.21011L47.4133 4.32251L47.4092 6.8733L49.7669 7.92152L47.3059 8.70745L47.0238 11.2424L45.5063 9.17662L42.974 9.69529L44.4975 7.63348L43.2148 5.41924ZM54.2644 7.75721L56.4444 9.12911L58.6063 7.72851L57.958 10.1981L59.9764 11.7937L57.3949 11.9491L56.4795 14.3346L55.5331 11.961L52.9476 11.8393L54.9449 10.2179L54.2644 7.75721ZM75.3588 33.3403L76.3896 35.6802L78.9751 35.7119L77.038 37.4006L77.8068 39.8365L75.5776 38.5409L73.4669 40.0147L74.029 37.5253L71.9543 36L74.5288 35.7565L75.3588 33.3403ZM71.3009 22.9095L72.7222 25.0416L75.2755 24.6377L73.6586 26.6283L74.8379 28.8989L72.4181 27.9972L70.5923 29.8046L70.7138 27.2568L68.4083 26.1027L70.9025 25.4296L71.3009 22.9095ZM64.0784 14.3465L66.0547 15.9916L68.3883 14.8899L67.4107 17.2516L69.1952 19.0977L66.6147 18.9106L65.3862 21.1555L64.769 18.68L62.2246 18.2197L64.4217 16.8745L64.0784 14.3465ZM42.0877 23.9181C42.6116 23.8676 43.1416 23.8409 43.6785 23.8409C52.5571 23.8409 59.7526 30.939 59.7526 39.692C59.7526 40.2216 59.7254 40.7472 59.6743 41.2639C57.1871 32.9355 50.5307 26.3709 42.0877 23.9181Z" fill="#FEFEFE"/>
<path id="Vector_2" fill-rule="evenodd" clip-rule="evenodd" d="M113.558 30.1653H110.112H107.219L107.218 22.9227L108.894 22.9405H113.745H121.904C123.821 22.9405 125.576 21.1954 125.576 19.3039V15.7138H113.558H108.706H99.8775C97.7035 15.7138 96.2061 17.4935 96.2061 19.3039C96.2061 29.9089 96.2161 41.2909 96.2061 51.8949H103.56C105.478 51.8949 107.219 50.4874 107.219 48.5968V44.7603V41.1741V37.4049H110.112H113.558H118.398C120.316 37.4049 121.885 35.8568 121.885 33.9652V30.1653H113.558ZM232 47.6684V44.6474H213.644V15.7138H207.062C204.626 15.7138 202.635 17.6796 202.635 20.0809V45.4987V52.0355H213.386H227.573C230.008 52.0355 232 50.0697 232 47.6684ZM180.642 15.6841C185.826 15.6841 190.506 17.8073 193.846 21.2202C195.124 20.3838 196.375 19.6107 197.589 18.9169C201.277 16.9689 201.728 17.3054 198.974 20.4946C189.969 30.3652 176.776 39.9042 161.432 50.0865C160.377 50.7497 160.123 50.2894 160.971 49.4907C162.478 47.9426 164.125 46.2925 165.876 44.5851C163.621 41.573 162.287 37.8483 162.287 33.8148C162.287 23.8007 170.505 15.6841 180.642 15.6841ZM185.477 27.269C184.121 26.2901 182.451 25.713 180.642 25.713C176.111 25.713 172.439 29.3397 172.439 33.8148C172.439 35.1599 172.772 36.4279 173.358 37.5444C177.268 33.9979 181.4 30.4573 185.477 27.269ZM198.998 33.8148C198.998 43.8279 190.78 51.9454 180.642 51.9454C175.541 51.9454 170.926 49.8896 167.6 46.5717L176.938 41.0464C178.052 41.6027 179.309 41.9175 180.642 41.9175C183.868 41.9175 186.659 40.0774 187.998 37.4019L198.998 33.8148ZM158.663 40.9445C158.663 44.4574 157.846 47.5249 154.965 49.4214C152.295 51.1793 148.723 52.0573 144.232 52.0573C135.182 52.0573 129.273 48.2672 129.273 39.7755H140.259C140.259 46.0342 148.313 45.9263 148.313 41.2117C148.313 40.1932 147.827 39.3647 146.862 38.7332C145.132 37.6464 141.721 36.6902 139.839 36.034C137.281 35.1649 134.563 34.0751 132.447 32.3785C130.333 30.6344 129.282 28.5113 129.282 25.9931C129.282 22.8979 130.879 20.3571 134.074 18.3833C137.005 16.5838 140.443 15.6841 144.407 15.6841C151.377 15.6841 158.53 19.1198 158.53 26.5692H147.603C146.656 21.4211 140.269 22.4931 140.269 25.8981C140.269 26.5455 140.395 27.0424 140.667 27.3819C141.106 27.9817 142.421 28.7241 144.631 29.6001L149.2 31.2659C154.244 33.111 158.663 35.5964 158.663 40.9445Z" fill="#FEFEFE"/>
<path id="Vector_3" fill-rule="evenodd" clip-rule="evenodd" d="M42.0825 0C65.3218 0 84.163 18.58 84.163 41.4995C84.163 64.4199 65.3218 83 42.0825 83C18.8412 83 0 64.4199 0 41.4995C0 18.58 18.8412 0 42.0825 0ZM71.2887 12.6955C63.8143 5.32527 53.4874 0.765137 42.0825 0.765137C30.6756 0.765137 20.3487 5.32527 12.8743 12.6955C5.40083 20.0678 0.776852 30.2521 0.776852 41.4995C0.776852 52.7489 5.40083 62.9332 12.8743 70.3045C20.3487 77.6747 30.6756 82.2349 42.0825 82.2349C53.4874 82.2349 63.8143 77.6747 71.2887 70.3045C78.7632 62.9332 83.3861 52.7489 83.3861 41.4995C83.3861 30.2521 78.7632 20.0678 71.2887 12.6955Z" fill="#FEFEFE"/>
<path id="Vector_4" d="M99.7601 66.9747L98.0448 64.6298H98.0247V66.9747H96.2061V59.7083H98.5557C98.8026 59.7083 99.0023 59.7133 99.1529 59.7222C99.3757 59.7311 99.5744 59.7529 99.7521 59.7836C100.196 59.8578 100.56 60.0063 100.845 60.231C101.456 60.71 101.761 61.3712 101.761 62.2156C101.761 62.7926 101.6 63.2905 101.277 63.7053C100.94 64.1457 100.485 64.413 99.9127 64.5011L101.928 66.9747H99.7601ZM99.9428 62.3195C99.9428 61.9849 99.8203 61.7325 99.5744 61.5623C99.3616 61.4138 99.0756 61.3376 98.7163 61.3376H98.0247V63.3608H98.6972C99.5282 63.3608 99.9428 63.0134 99.9428 62.3195ZM110.559 64.314C110.559 64.4714 110.545 64.6149 110.518 64.7466H106.34C106.446 65.4335 106.879 65.777 107.644 65.777C108.045 65.777 108.383 65.6067 108.661 65.2682H110.366C110.118 65.8344 109.762 66.2838 109.298 66.6193C108.804 66.9747 108.253 67.1518 107.644 67.1518C106.831 67.1518 106.137 66.8697 105.56 66.3036C104.983 65.7413 104.694 65.0623 104.694 64.2665C104.694 63.4667 104.976 62.7808 105.542 62.2106C106.112 61.6276 106.804 61.3376 107.616 61.3376C108.459 61.3376 109.164 61.6276 109.73 62.2106C110.282 62.7808 110.559 63.4835 110.559 64.314ZM108.892 63.6488C108.754 63.0253 108.333 62.7144 107.626 62.7144C106.919 62.7144 106.498 63.0253 106.36 63.6488H108.892ZM118.146 66.9747V66.3857H118.128C117.987 66.648 117.752 66.847 117.426 66.9846C117.145 67.1023 116.836 67.1617 116.499 67.1617C115.658 67.1617 114.978 66.8786 114.454 66.3135C113.952 65.7641 113.699 65.0752 113.699 64.2477C113.699 63.4321 113.955 62.7481 114.469 62.1958C115.001 61.6227 115.679 61.3376 116.499 61.3376C116.832 61.3376 117.14 61.399 117.421 61.5197C117.734 61.6533 117.97 61.8483 118.128 62.1037H118.146V61.5247H119.813V66.9747H118.146ZM118.146 64.2477C118.146 63.8478 118.014 63.5172 117.749 63.2559C117.485 62.9926 117.15 62.8609 116.744 62.8609C116.342 62.8609 116.01 62.9985 115.75 63.2737C115.493 63.539 115.366 63.8706 115.366 64.2665C115.366 64.6466 115.498 64.9683 115.764 65.2336C116.035 65.5038 116.365 65.6374 116.753 65.6374C117.157 65.6374 117.489 65.5058 117.754 65.2385C118.015 64.9732 118.146 64.6436 118.146 64.2477ZM129.139 64.903C128.978 65.5691 128.627 66.1105 128.085 66.5292C127.546 66.944 126.922 67.1518 126.217 67.1518C125.383 67.1518 124.679 66.8697 124.103 66.3036C123.524 65.7413 123.235 65.0524 123.235 64.2368C123.235 63.4291 123.517 62.7451 124.083 62.1859C124.652 61.6207 125.35 61.3376 126.177 61.3376C126.9 61.3376 127.534 61.5474 128.08 61.9651C128.635 62.3868 128.985 62.9411 129.129 63.629H127.443C127.2 63.1183 126.784 62.8609 126.197 62.8609C125.808 62.8609 125.494 63.0005 125.255 63.2786C125.027 63.54 124.911 63.8646 124.911 64.2477C124.911 64.6397 125.032 64.9653 125.27 65.2256C125.52 65.4939 125.841 65.6285 126.235 65.6285C126.781 65.6285 127.185 65.386 127.443 64.903H129.139ZM136.026 66.9747V64.0111C136.026 63.6696 135.967 63.4063 135.851 63.2212C135.703 62.9876 135.461 62.8708 135.129 62.8708C134.792 62.8708 134.548 62.9748 134.394 63.1787C134.264 63.3539 134.198 63.6112 134.198 63.9497V66.9747H132.529V59.7083H134.198V62.0285H134.217C134.354 61.788 134.56 61.6098 134.834 61.49C135.07 61.3891 135.343 61.3376 135.654 61.3376C136.313 61.3376 136.819 61.5375 137.168 61.9364C137.406 62.2057 137.56 62.5194 137.629 62.8807C137.659 63.0252 137.677 63.1935 137.684 63.3895C137.687 63.4647 137.689 63.5548 137.692 63.6577V66.9747H136.026ZM146.806 62.762V66.9747H145.139V62.762H144.514V61.5247H145.139V61.2416C145.139 60.6249 145.347 60.1815 145.766 59.9103C146.112 59.6856 146.611 59.5747 147.265 59.5747H147.506V60.8011C147.209 60.8011 147.018 60.8456 146.932 60.9357C146.847 61.0208 146.806 61.2168 146.806 61.5247H147.506V62.762H146.806ZM156.453 64.2477C156.453 65.0782 156.165 65.7691 155.59 66.3184C155.019 66.8687 154.304 67.1429 153.447 67.1429C152.591 67.1429 151.879 66.8687 151.31 66.3184C150.734 65.7691 150.447 65.0782 150.447 64.2477C150.447 63.4123 150.734 62.7204 151.31 62.171C151.879 61.6207 152.591 61.3465 153.447 61.3465C154.304 61.3465 155.019 61.6207 155.59 62.171C156.165 62.7204 156.453 63.4123 156.453 64.2477ZM154.787 64.2477C154.787 63.8706 154.662 63.5489 154.409 63.2836C154.151 63.0084 153.831 62.8708 153.447 62.8708C153.07 62.8708 152.75 63.0084 152.492 63.2836C152.239 63.5489 152.114 63.8706 152.114 64.2477C152.114 64.6218 152.239 64.9425 152.492 65.2108C152.75 65.482 153.07 65.6186 153.447 65.6186C153.831 65.6186 154.151 65.482 154.409 65.2108C154.662 64.9425 154.787 64.6218 154.787 64.2477ZM162.841 62.9777C162.413 62.9886 162.101 63.053 161.909 63.1688C161.654 63.3232 161.527 63.5924 161.527 63.9784V66.9747H159.861V61.5247H161.423V62.1037H161.449C161.713 61.593 162.176 61.3376 162.841 61.3376V62.9777ZM171.713 62.762V66.9747H170.046V62.762H169.223V61.5247H170.046V59.7083H171.713V61.5247H172.516V62.762H171.713ZM179.209 66.9747V64.0111C179.209 63.6696 179.151 63.4063 179.033 63.2212C178.886 62.9876 178.645 62.8708 178.311 62.8708C177.975 62.8708 177.73 62.9748 177.577 63.1787C177.446 63.3539 177.381 63.6112 177.381 63.9497V66.9747H175.713V59.7083H177.381V62.0285H177.399C177.537 61.788 177.742 61.6098 178.017 61.49C178.253 61.3891 178.526 61.3376 178.837 61.3376C179.497 61.3376 180.002 61.5375 180.352 61.9364C180.59 62.2057 180.743 62.5194 180.812 62.8807C180.842 63.0252 180.861 63.1935 180.868 63.3895C180.871 63.4647 180.873 63.5548 180.876 63.6577V66.9747H179.209ZM190.104 64.314C190.104 64.4714 190.09 64.6149 190.064 64.7466H185.886C185.992 65.4335 186.425 65.777 187.19 65.777C187.59 65.777 187.928 65.6067 188.206 65.2682H189.911C189.663 65.8344 189.307 66.2838 188.843 66.6193C188.349 66.9747 187.799 67.1518 187.19 67.1518C186.376 67.1518 185.682 66.8697 185.105 66.3036C184.528 65.7413 184.239 65.0623 184.239 64.2665C184.239 63.4667 184.522 62.7808 185.087 62.2106C185.658 61.6276 186.349 61.3376 187.161 61.3376C188.005 61.3376 188.71 61.6276 189.275 62.2106C189.828 62.7808 190.104 63.4835 190.104 64.314ZM188.437 63.6488C188.299 63.0253 187.878 62.7144 187.171 62.7144C186.465 62.7144 186.043 63.0253 185.906 63.6488H188.437ZM201.405 65.3058C201.405 65.8849 201.169 66.3461 200.696 66.6916C200.268 67.0053 199.747 67.1617 199.136 67.1617C198.529 67.1617 198.02 67.0093 197.611 66.7064C197.177 66.3837 196.929 65.9324 196.867 65.3543H198.524C198.572 65.6899 198.784 65.8571 199.156 65.8571C199.301 65.8571 199.429 65.8225 199.542 65.7522C199.674 65.672 199.738 65.5661 199.738 65.4315C199.738 65.2613 199.652 65.1227 199.474 65.0148L199.23 64.898L198.264 64.5585C197.874 64.4209 197.569 64.2507 197.352 64.0458C197.074 63.7904 196.935 63.4865 196.935 63.1351C196.935 62.5947 197.16 62.1542 197.611 61.8127C198.027 61.495 198.522 61.3376 199.098 61.3376C199.682 61.3376 200.164 61.4811 200.544 61.7632C200.952 62.0681 201.182 62.4996 201.235 63.0579H199.597C199.588 62.7827 199.414 62.6452 199.078 62.6452C198.76 62.6452 198.602 62.7679 198.602 63.0104C198.602 63.1915 198.749 63.341 199.043 63.4568C199.141 63.4974 199.29 63.5469 199.489 63.6043C199.506 63.6073 199.526 63.6122 199.552 63.6191L200.005 63.7577C200.204 63.8221 200.374 63.8894 200.518 63.9596C200.696 64.0458 200.845 64.1438 200.966 64.2576C201.26 64.5219 201.405 64.8723 201.405 65.3058ZM206.711 62.762V66.9747H205.044V62.762H204.221V61.5247H205.044V59.7083H206.711V61.5247H207.514V62.762H206.711ZM214.897 66.9747V66.3857H214.879C214.738 66.648 214.504 66.847 214.177 66.9846C213.896 67.1023 213.587 67.1617 213.251 67.1617C212.411 67.1617 211.729 66.8786 211.205 66.3135C210.703 65.7641 210.45 65.0752 210.45 64.2477C210.45 63.4321 210.706 62.7481 211.22 62.1958C211.752 61.6227 212.431 61.3376 213.251 61.3376C213.584 61.3376 213.891 61.399 214.173 61.5197C214.485 61.6533 214.721 61.8483 214.879 62.1037H214.897V61.5247H216.564V66.9747H214.897ZM214.897 64.2477C214.897 63.8478 214.765 63.5172 214.501 63.2559C214.236 62.9926 213.901 62.8609 213.497 62.8609C213.093 62.8609 212.762 62.9985 212.501 63.2737C212.245 63.539 212.118 63.8706 212.118 64.2665C212.118 64.6466 212.249 64.9683 212.516 65.2336C212.787 65.5038 213.116 65.6374 213.505 65.6374C213.908 65.6374 214.241 65.5058 214.505 65.2385C214.766 64.9732 214.897 64.6436 214.897 64.2477ZM223.228 62.9777C222.8 62.9886 222.489 63.053 222.296 63.1688C222.041 63.3232 221.915 63.5924 221.915 63.9784V66.9747H220.247V61.5247H221.81V62.1037H221.835C222.1 61.593 222.564 61.3376 223.228 61.3376V62.9777ZM230.561 65.3058C230.561 65.8849 230.325 66.3461 229.852 66.6916C229.423 67.0053 228.902 67.1617 228.292 67.1617C227.685 67.1617 227.176 67.0093 226.767 66.7064C226.332 66.3837 226.085 65.9324 226.023 65.3543H227.68C227.728 65.6899 227.939 65.8571 228.312 65.8571C228.456 65.8571 228.585 65.8225 228.698 65.7522C228.829 65.672 228.894 65.5661 228.894 65.4315C228.894 65.2613 228.808 65.1227 228.63 65.0148L228.385 64.898L227.42 64.5585C227.03 64.4209 226.725 64.2507 226.507 64.0458C226.23 63.7904 226.091 63.4865 226.091 63.1351C226.091 62.5947 226.316 62.1542 226.767 61.8127C227.183 61.495 227.678 61.3376 228.254 61.3376C228.838 61.3376 229.32 61.4811 229.699 61.7632C230.108 62.0681 230.338 62.4996 230.391 63.0579H228.753C228.744 62.7827 228.57 62.6452 228.233 62.6452C227.916 62.6452 227.758 62.7679 227.758 63.0104C227.758 63.1915 227.906 63.341 228.199 63.4568C228.297 63.4974 228.445 63.5469 228.645 63.6043C228.661 63.6073 228.682 63.6122 228.708 63.6191L229.16 63.7577C229.36 63.8221 229.53 63.8894 229.674 63.9596C229.852 64.0458 230.001 64.1438 230.122 64.2576C230.416 64.5219 230.561 64.8723 230.561 65.3058Z" fill="#FEFEFE"/>
</g>
</svg>
