<svg width="44" height="45" viewBox="0 0 44 45" fill="none" xmlns="http://www.w3.org/2000/svg">
<g id="Solid/Apple">
<path id="Glyph" d="M32.9826 39.2829C30.8602 41.3095 28.5186 40.9936 26.2866 40.038C23.9136 39.0633 21.7442 39.0016 19.2381 40.038C16.1172 41.3634 14.4608 40.9782 12.5812 39.2829C1.96934 28.5332 3.53567 12.1582 15.5964 11.5418C18.5215 11.6959 20.5695 13.133 22.2924 13.2525C24.8534 12.74 27.3047 11.2721 30.0457 11.4647C33.339 11.7267 35.802 13.0059 37.4466 15.3061C30.6723 19.3131 32.2778 28.0978 38.5 30.5637C37.2548 33.7809 35.6571 36.9595 32.9787 39.3098L32.9826 39.2829ZM22.0575 11.4262C21.7403 6.64854 25.6757 2.71855 30.2024 2.33325C30.825 7.84294 25.1118 11.9656 22.0575 11.4262Z" fill="white"/>
</g>
</svg>
