<svg width="19" height="18" viewBox="0 0 19 18" fill="none" xmlns="http://www.w3.org/2000/svg">
<g id="Icon">
<path id="Vector" d="M15.4965 9.28717C15.5329 9.19939 15.5531 9.1032 15.5534 9.00233V8.99783C15.5528 8.80664 15.4796 8.61562 15.3337 8.46975L10.0304 3.16645C9.73752 2.87355 9.26264 2.87355 8.96975 3.16645C8.67686 3.45934 8.67686 3.93421 8.96975 4.22711L12.9927 8.25008L4.19678 8.25008C3.78256 8.25008 3.44678 8.58587 3.44678 9.00008C3.44678 9.41429 3.78256 9.75008 4.19678 9.75008H12.9927L8.96975 13.773C8.67685 14.0659 8.67685 14.5408 8.96975 14.8337C9.26264 15.1266 9.73751 15.1266 10.0304 14.8337L15.3333 9.53078L15.3353 9.52882C15.4064 9.45728 15.4601 9.37497 15.4965 9.28717Z" fill="white"/>
</g>
</svg>
