<svg width="24" height="24" viewBox="0 0 24 24" fill="none" xmlns="http://www.w3.org/2000/svg">
<g id="Solid/Check">
<path id="Subtract" fill-rule="evenodd" clip-rule="evenodd" d="M22 12.0515C22 17.5254 17.4761 22.0515 11.9952 22.0515C6.52392 22.0515 2 17.5254 2 12.0515C2 6.57763 6.51426 2.05151 11.9855 2.05151C17.4664 2.05151 22 6.57763 22 12.0515ZM17.7121 9.75903C18.096 9.36849 18.096 8.74082 17.7121 8.35027C17.3205 7.95193 16.6795 7.95193 16.2879 8.35027L10.125 14.6196L7.71206 12.165C7.32048 11.7667 6.67952 11.7667 6.28794 12.165C5.90402 12.5556 5.90402 13.1832 6.28794 13.5738L9.41294 16.7528C9.80452 17.1511 10.4455 17.1511 10.8371 16.7528L17.7121 9.75903Z" fill="#3E8E41"/>
</g>
</svg>
