<svg width="20" height="20" viewBox="0 0 20 20" fill="none" xmlns="http://www.w3.org/2000/svg">
<g id="Close Square">
<path id="Close Square_2" fill-rule="evenodd" clip-rule="evenodd" d="M5.6698 -0.000732422H14.3398C17.7298 -0.000732422 19.9998 2.37927 19.9998 5.91927V14.0903C19.9998 17.6203 17.7298 19.9993 14.3398 19.9993H5.6698C2.2798 19.9993 -0.000198364 17.6203 -0.000198364 14.0903V5.91927C-0.000198364 2.37927 2.2798 -0.000732422 5.6698 -0.000732422ZM13.0098 12.9993C13.3498 12.6603 13.3498 12.1103 13.0098 11.7703L11.2298 9.99027L13.0098 8.20927C13.3498 7.87027 13.3498 7.31027 13.0098 6.97027C12.6698 6.62927 12.1198 6.62927 11.7698 6.97027L9.9998 8.74927L8.2198 6.97027C7.8698 6.62927 7.3198 6.62927 6.9798 6.97027C6.6398 7.31027 6.6398 7.87027 6.9798 8.20927L8.7598 9.99027L6.9798 11.7603C6.6398 12.1103 6.6398 12.6603 6.9798 12.9993C7.1498 13.1693 7.3798 13.2603 7.5998 13.2603C7.8298 13.2603 8.0498 13.1693 8.2198 12.9993L9.9998 11.2303L11.7798 12.9993C11.9498 13.1803 12.1698 13.2603 12.3898 13.2603C12.6198 13.2603 12.8398 13.1693 13.0098 12.9993Z" fill="#6E7891"/>
</g>
</svg>
