<svg width="16" height="16" viewBox="0 0 16 16" fill="none" xmlns="http://www.w3.org/2000/svg">
<g id="Group 38278">
<path id="Vector" d="M1.82016 3.75049C1.33652 4.45247 0.968963 5.24069 0.746094 6.08786H4.15766L1.82016 3.75049Z" fill="#EDF0F7"/>
<path id="Vector_2" d="M5.89938 0.800293C5.03526 1.05195 4.23498 1.45351 3.53027 1.97728L5.89938 4.34638V0.800293Z" fill="#29337A"/>
<path id="Vector_3" d="M3.70703 14.1479C4.36804 14.6104 5.10654 14.9685 5.89994 15.1996V11.9553L3.70703 14.1479Z" fill="#29337A"/>
<path id="Vector_4" d="M0.832031 10.2144C1.08001 11.0176 1.46001 11.7628 1.94565 12.4257L4.15702 10.2144H0.832031Z" fill="#29337A"/>
<path id="Vector_5" d="M1.94479 3.57617C1.90286 3.63349 1.86154 3.69163 1.82103 3.75037L4.15853 6.08774H0.746966C0.691676 6.29817 0.646552 6.51265 0.609375 6.73007H5.09894L1.94479 3.57617Z" fill="white"/>
<path id="Vector_6" d="M3.53223 14.0242C3.58929 14.0668 3.64794 14.1072 3.70617 14.148L5.89908 11.9553V15.1996C6.10976 15.2612 6.32373 15.3143 6.54141 15.3571V11.0151L3.53223 14.0242Z" fill="white"/>
<path id="Vector_7" d="M0.666016 9.57227C0.712566 9.78991 0.767507 10.0043 0.832519 10.2146H4.15754L1.94617 12.426C2.18668 12.7546 2.45337 13.0629 2.74315 13.3481L6.51895 9.57227H0.666016Z" fill="white"/>
<path id="Vector_8" d="M5.89915 0.800332V4.34642L3.53002 1.97744C3.20341 2.22032 2.89811 2.48997 2.61523 2.78187L6.54135 6.70799V0.642822C6.3238 0.685825 6.10983 0.73912 5.89915 0.800332Z" fill="white"/>
<path id="Vector_9" d="M5.89947 10.1917L5.87695 10.2143H5.89947V10.1917Z" fill="#D32030"/>
<path id="Vector_10" d="M6.51953 9.57217H6.54201V9.54956L6.51953 9.57217Z" fill="#D32030"/>
<path id="Vector_11" d="M9.40643 6.73022H9.38477V6.75201L9.40643 6.73022Z" fill="#D32030"/>
<path id="Vector_12" d="M5.92155 6.08769L5.89941 6.06543V6.08769H5.92155Z" fill="#D32030"/>
<path id="Vector_13" d="M6.54199 6.70776V6.72993H6.56416L6.54199 6.70776Z" fill="#D32030"/>
<path id="Vector_14" d="M10.0264 13.5391V15.2203C10.8301 14.9953 11.5795 14.6407 12.2497 14.1786L10.4281 12.3569C10.2825 12.8684 10.2292 13.1328 10.0264 13.5391Z" fill="#252F6C"/>
<path id="Vector_15" d="M10.4377 3.93497L12.4263 1.94634C11.7119 1.42314 10.9014 1.02443 10.0264 0.779297V2.50633C10.2603 2.97468 10.2799 3.33055 10.4377 3.93497Z" fill="#252F6C"/>
<path id="Vector_16" d="M14.0227 12.4694C14.5235 11.7957 14.9138 11.0352 15.1673 10.2144H11.7676L14.0227 12.4694Z" fill="#252F6C"/>
<path id="Vector_17" d="M15.253 6.08786C15.0254 5.22279 14.6468 4.41979 14.1479 3.70679L11.7666 6.08786H15.253Z" fill="#252F6C"/>
<path id="Vector_18" d="M10.875 9.69922L11.3904 10.2146L13.8573 12.6815C13.9133 12.6114 13.969 12.5415 14.0225 12.4697L11.7674 10.2146H15.1672C15.2319 10.0044 15.287 9.78994 15.3334 9.57227H10.9232C10.916 9.66334 10.8836 9.60875 10.875 9.69922Z" fill="#E7E7E7"/>
<path id="Vector_19" d="M10.3595 4.31102L12.5954 2.07489C12.5394 2.03144 12.4833 1.98822 12.4261 1.94629L10.4374 3.93492C10.4581 4.01355 10.3404 4.23049 10.3595 4.31102Z" fill="#E7E7E7"/>
<path id="Vector_20" d="M10.0261 2.36805V0.779083C9.81569 0.720119 9.60147 0.670149 9.38379 0.629395V1.40447C9.62278 1.66356 9.837 1.989 10.0261 2.36805Z" fill="#E7E7E7"/>
<path id="Vector_21" d="M10.8247 6.72988H15.3909C15.3538 6.51246 15.3086 6.29811 15.2533 6.08756H11.7669L14.1482 3.70648C13.9141 3.37205 13.6539 3.05754 13.3697 2.76611L10.6875 5.44808C10.7597 5.93458 10.7921 6.21711 10.8247 6.72988Z" fill="#E7E7E7"/>
<path id="Vector_22" d="M10.3193 12.2484L12.2495 14.1788C12.5705 13.9577 12.8728 13.7116 13.1549 13.4444L10.6161 10.9055C10.5351 11.3751 10.4389 11.8286 10.3193 12.2484Z" fill="#E7E7E7"/>
<path id="Vector_23" d="M9.38477 14.5061V15.37C9.60241 15.3295 9.81654 15.2792 10.0271 15.2203V13.5391C9.83785 13.9183 9.62363 14.2473 9.38477 14.5061Z" fill="#E7E7E7"/>
<path id="Vector_24" d="M10.6878 5.44827L13.3698 2.7663C13.1284 2.51832 12.8695 2.28753 12.5957 2.07495L10.4883 4.18271C10.582 4.5742 10.6245 5.02232 10.6878 5.44827Z" fill="#D71F28"/>
<path id="Vector_25" d="M7.62598 0.509247C7.75093 0.503198 7.87551 0.5 8.00018 0.5C7.87478 0.5 7.74998 0.503198 7.62598 0.509247Z" fill="#D32030"/>
<path id="Vector_26" d="M7.99996 15.4999C7.87526 15.4999 7.75068 15.4965 7.62598 15.4905C7.74998 15.4967 7.87456 15.4999 7.99996 15.4999Z" fill="#D32030"/>
<path id="Vector_27" d="M8 15.4998C8.47319 15.4998 8.93527 15.4539 9.38408 15.37V14.5061C8.99012 14.9331 8.52924 15.4998 8 15.4998Z" fill="#D32030"/>
<path id="Vector_28" d="M15.3907 6.73022H10.8839C10.9436 7.67085 10.9363 8.6381 10.8623 9.5723H15.3336C15.4419 9.0651 15.4999 8.53956 15.4999 8.00028C15.4999 7.56708 15.4613 7.14338 15.3907 6.73022Z" fill="#D71F28"/>
<path id="Vector_29" d="M10.8753 9.69922C10.8336 10.1424 10.6884 10.4877 10.6162 10.9057L13.155 13.4445C13.4062 13.2065 13.641 12.9519 13.8575 12.6815L11.3906 10.2145L10.8753 9.69922Z" fill="#D71F28"/>
<path id="Vector_30" d="M9.38412 1.46026V0.629548C8.93543 0.545822 8.47335 0.5 8 0.5C8.52924 0.5 8.99012 1.03336 9.38412 1.46026Z" fill="#D32030"/>
<path id="Vector_31" d="M10.0264 13.8637C10.2292 13.4573 10.4032 12.9894 10.5488 12.478L10.0264 11.9556V13.8637Z" fill="#29337A"/>
<path id="Vector_32" d="M10.6138 3.75872C10.4559 3.1543 10.2603 2.60482 10.0264 2.13647V4.34595L10.6138 3.75872Z" fill="#29337A"/>
<path id="Vector_33" d="M11.0205 9.84476C11.0291 9.75429 11.0368 9.66347 11.0441 9.57227H10.748L11.0205 9.84476Z" fill="white"/>
<path id="Vector_34" d="M10.0261 4.34603V2.13643C9.83688 1.75738 9.62278 1.43173 9.38379 1.17285V5.28653L10.6737 3.99659C10.6543 3.91606 10.6339 3.83718 10.6136 3.75855L10.0261 4.34603Z" fill="white"/>
<path id="Vector_35" d="M9.40527 6.73015H11.0655C11.033 6.21741 10.9811 5.71293 10.909 5.22656L9.40527 6.73015Z" fill="white"/>
<path id="Vector_36" d="M9.38477 14.8269C9.62375 14.5678 9.83785 14.2423 10.0271 13.8633V11.9552L10.5496 12.4776C10.6694 12.0576 10.7699 11.6089 10.8512 11.1394L9.3848 9.6731L9.38477 14.8269Z" fill="white"/>
<path id="Vector_37" d="M9.3839 14.827V9.67321L10.8502 11.1396C10.9223 10.7214 10.979 10.2878 11.0206 9.84455L10.7481 9.57206H11.0441C11.1182 8.63784 11.1254 7.67058 11.0657 6.72999H9.40547L10.9091 5.2264C10.8457 4.80032 10.7673 4.38821 10.6736 3.99659L9.38393 5.28653V1.17285C8.98991 0.745828 8.52903 0.5 7.99979 0.5C7.87508 0.5 7.75051 0.503198 7.62558 0.509247C7.2567 0.527708 6.89494 0.573086 6.54179 0.642721V6.70785L2.61558 2.78174C2.37435 3.03067 2.14996 3.29591 1.9446 3.57622L4.45617 6.08779L5.09872 6.73011H0.609186C0.538855 7.14314 0.5 7.56684 0.5 8.00004C0.5 8.53945 0.558267 9.06486 0.66625 9.57206H6.51931L2.74348 13.3479C2.99074 13.5908 3.25398 13.817 3.53265 14.0239L6.5417 11.0149V15.3569C6.89481 15.4265 7.25683 15.4719 7.62571 15.4904C7.75041 15.4964 7.87499 15.4998 7.99969 15.4998C8.52903 15.4998 8.98991 15.254 9.3839 14.827Z" fill="#E51D35"/>
</g>
</svg>
