<svg width="40" height="39" viewBox="0 0 40 39" fill="none" xmlns="http://www.w3.org/2000/svg">
<g id="facebook_1_">
<g id="circle_1_">
<path id="Vector" d="M20 38.75C30.6315 38.75 39.25 30.1315 39.25 19.5C39.25 8.86852 30.6315 0.25 20 0.25C9.36851 0.25 0.75 8.86852 0.75 19.5C0.75 30.1315 9.36851 38.75 20 38.75Z" fill="url(#paint0_radial_2686_202)"/>
<path id="Vector_2" d="M20 38.75C30.6315 38.75 39.25 30.1315 39.25 19.5C39.25 8.86852 30.6315 0.25 20 0.25C9.36851 0.25 0.75 8.86852 0.75 19.5C0.75 30.1315 9.36851 38.75 20 38.75Z" fill="url(#paint1_radial_2686_202)"/>
</g>
<g id="lights_1_">
<g id="Vector_3" style="mix-blend-mode:screen" opacity="0.3">
<path d="M5.36562 24.3286C3.99376 22.7373 3.28039 20.6465 3.12674 18.5229C2.94566 16.3828 3.39014 14.1823 4.29557 12.2068C5.19003 10.2204 6.6442 8.50828 8.36177 7.24068C10.0958 5.99502 12.1536 5.19934 14.2498 5.21032C12.7737 6.70291 11.5116 8.00892 10.4415 9.43566C9.38793 10.8569 8.47701 12.2891 7.77462 13.8311C7.07222 15.3676 6.49055 16.9699 6.12838 18.6985C5.71133 20.427 5.52476 22.2434 5.36562 24.3286Z" fill="url(#paint2_linear_2686_202)"/>
</g>
<g id="Vector_4" style="mix-blend-mode:screen" opacity="0.3">
<path d="M39.2518 19.4995C39.2518 30.1342 30.631 38.7495 20.0018 38.7495C14.218 38.7495 9.03234 36.2033 5.50391 32.1645C8.89515 35.1552 13.34 36.966 18.2129 36.966C28.8421 36.966 37.4628 28.3452 37.4628 17.716C37.4628 12.8542 35.663 8.41481 32.6833 5.02905C36.7111 8.552 39.2518 13.7267 39.2518 19.4995Z" fill="url(#paint3_linear_2686_202)"/>
</g>
</g>
<path id="logo_1_" d="M24.3344 10.7973H26.3099V7.11517C25.1246 6.94506 23.8405 6.82983 22.6388 6.84629C21.8101 6.85726 20.998 7.0603 20.2627 7.43893C18.8085 8.1962 17.7714 9.62294 17.5025 11.2417C17.4531 11.5271 17.4312 11.8179 17.4312 12.1088V15.8073H17.4257H13.6777V20.082H17.4312V32.1489H22.0351V20.0875H25.6569L26.2495 15.8128H22.0406H22.0351V13.102C22.0351 11.8289 23.0668 10.7973 24.3344 10.7973Z" fill="white"/>
</g>
<defs>
<radialGradient id="paint0_radial_2686_202" cx="0" cy="0" r="1" gradientUnits="userSpaceOnUse" gradientTransform="translate(21.9034 10.6965) scale(50.5364)">
<stop stop-color="#4792F5"/>
<stop offset="0.5" stop-color="#1977F3"/>
<stop offset="1" stop-color="#1359B6"/>
</radialGradient>
<radialGradient id="paint1_radial_2686_202" cx="0" cy="0" r="1" gradientUnits="userSpaceOnUse" gradientTransform="translate(19.8077 38.4811) rotate(-90) scale(38.4122)">
<stop stop-color="#1359B6"/>
<stop offset="0.535039" stop-color="#1977F3"/>
<stop offset="1" stop-color="#4792F5"/>
</radialGradient>
<linearGradient id="paint2_linear_2686_202" x1="3.08081" y1="14.766" x2="14.244" y2="14.766" gradientUnits="userSpaceOnUse">
<stop offset="0.1577"/>
<stop offset="0.2453" stop-color="#171717"/>
<stop offset="0.4296" stop-color="#525252"/>
<stop offset="0.6924" stop-color="#B1B1B1"/>
<stop offset="0.8988" stop-color="white"/>
</linearGradient>
<linearGradient id="paint3_linear_2686_202" x1="5.50358" y1="21.8893" x2="39.2514" y2="21.8893" gradientUnits="userSpaceOnUse">
<stop offset="0.1577"/>
<stop offset="0.2453" stop-color="#171717"/>
<stop offset="0.4296" stop-color="#525252"/>
<stop offset="0.6924" stop-color="#B1B1B1"/>
<stop offset="0.8988" stop-color="white"/>
</linearGradient>
</defs>
</svg>
