<svg width="40" height="39" viewBox="0 0 40 39" fill="none" xmlns="http://www.w3.org/2000/svg">
<g id="youtube_1_">
<g id="circle_1_">
<path id="Vector" d="M20 38.75C30.6315 38.75 39.25 30.1315 39.25 19.5C39.25 8.86852 30.6315 0.25 20 0.25C9.36852 0.25 0.75 8.86852 0.75 19.5C0.75 30.1315 9.36852 38.75 20 38.75Z" fill="url(#paint0_radial_2686_2237)"/>
</g>
<g id="lights_1_">
<g id="Vector_2" style="mix-blend-mode:screen" opacity="0.3">
<path d="M5.36465 24.3281C3.99278 22.7368 3.27942 20.646 3.12577 18.5224C2.94468 16.3823 3.38916 14.1818 4.29459 12.2063C5.18905 10.2199 6.64323 8.50779 8.3608 7.24019C10.0948 5.99454 12.1526 5.19885 14.2488 5.20983C12.7727 6.70242 11.5106 8.00843 10.4405 9.43517C9.38696 10.8564 8.47604 12.2886 7.77364 13.8306C7.07125 15.3671 6.48958 16.9695 6.12741 18.698C5.71036 20.4265 5.52379 22.2429 5.36465 24.3281Z" fill="url(#paint1_linear_2686_2237)"/>
</g>
<g id="Vector_3" style="mix-blend-mode:screen" opacity="0.6">
<path d="M39.2498 19.4997C39.2498 30.1344 30.629 38.7497 19.9998 38.7497C14.216 38.7497 9.03039 36.2035 5.50195 32.1648C8.8932 35.1554 13.338 36.9663 18.2109 36.9663C28.8401 36.9663 37.4609 28.3455 37.4609 17.7163C37.4609 12.8544 35.661 8.41506 32.6813 5.0293C36.7091 8.55224 39.2498 13.7269 39.2498 19.4997Z" fill="url(#paint2_linear_2686_2237)"/>
</g>
</g>
<g id="Group 37856">
<path id="Vector_4" d="M12.9219 22.5184L12.1096 25.5509L9.14057 25.6137C8.25328 23.968 7.75 22.0851 7.75 20.0841C7.75 18.1493 8.22056 16.3246 9.05466 14.718H9.05529L11.6985 15.2026L12.8564 17.83C12.6141 18.5365 12.482 19.2949 12.482 20.0841C12.4821 20.9407 12.6372 21.7613 12.9219 22.5184Z" fill="#FBBB00"/>
<path id="Vector_5" d="M30.8807 17.9038C31.0147 18.6096 31.0846 19.3386 31.0846 20.0836C31.0846 20.919 30.9968 21.7338 30.8294 22.5198C30.2614 25.1946 28.7772 27.5301 26.7212 29.1829L26.7206 29.1823L23.3913 29.0124L22.9201 26.0709C24.2844 25.2709 25.3505 24.0187 25.9122 22.5198H19.6729V17.9038H26.0032H30.8807Z" fill="#518EF8"/>
<path id="Vector_6" d="M26.7215 29.1831L26.7222 29.1838C24.7226 30.791 22.1824 31.7527 19.4173 31.7527C14.9738 31.7527 11.1104 29.2691 9.13965 25.6141L12.9209 22.5188C13.9063 25.1486 16.4432 27.0207 19.4173 27.0207C20.6957 27.0207 21.8933 26.6751 22.921 26.0718L26.7215 29.1831Z" fill="#28B446"/>
<path id="Vector_7" d="M26.8661 11.102L23.0861 14.1967C22.0225 13.5318 20.7652 13.1478 19.4183 13.1478C16.3768 13.1478 13.7925 15.1057 12.8565 17.8299L9.05533 14.7179H9.05469C10.9966 10.9738 14.9087 8.41577 19.4183 8.41577C22.2494 8.41577 24.8453 9.42426 26.8661 11.102Z" fill="#F14336"/>
</g>
</g>
<defs>
<radialGradient id="paint0_radial_2686_2237" cx="0" cy="0" r="1" gradientUnits="userSpaceOnUse" gradientTransform="translate(19.8082 -9.08333) rotate(90) scale(49.5833 49.5833)">
<stop stop-color="white"/>
<stop offset="0.5" stop-color="#F5F5F5"/>
<stop offset="1" stop-color="#C9C9C9"/>
</radialGradient>
<linearGradient id="paint1_linear_2686_2237" x1="-10.9175" y1="14.7655" x2="14.243" y2="14.7655" gradientUnits="userSpaceOnUse">
<stop offset="0.1577"/>
<stop offset="0.2453" stop-color="#171717"/>
<stop offset="0.4296" stop-color="#525252"/>
<stop offset="0.6924" stop-color="#B1B1B1"/>
<stop offset="0.8988" stop-color="white"/>
</linearGradient>
<linearGradient id="paint2_linear_2686_2237" x1="5.50162" y1="21.8896" x2="39.2495" y2="21.8896" gradientUnits="userSpaceOnUse">
<stop offset="0.1577"/>
<stop offset="0.2453" stop-color="#171717"/>
<stop offset="0.4296" stop-color="#525252"/>
<stop offset="0.6924" stop-color="#B1B1B1"/>
<stop offset="0.8988" stop-color="white"/>
</linearGradient>
</defs>
</svg>
