<svg width="18" height="18" viewBox="0 0 18 18" fill="none" xmlns="http://www.w3.org/2000/svg">
<path d="M9.00055 16.4996C13.1424 16.4996 16.5001 13.142 16.5001 9.00006C16.5001 4.85816 13.1424 1.50049 9.00055 1.50049C4.85865 1.50049 1.50098 4.85816 1.50098 9.00006C1.50098 13.142 4.85865 16.4996 9.00055 16.4996Z" fill="#EDF0F7"/>
<path d="M16.0714 6.49923C16.0706 6.49686 16.0699 6.49486 16.069 6.49271C15.1092 3.7863 12.6402 1.79508 9.67383 1.53076C10.8217 2.16004 11.1569 4.15376 11.4506 6.49926C11.6512 8.10136 11.6525 9.86664 11.4544 11.4707C11.1632 13.8289 10.8266 15.8367 9.67386 16.4686C12.6457 16.2038 15.1182 14.2057 16.0743 11.4921C16.0768 11.4848 16.0789 11.4777 16.0815 11.4707C16.3515 10.6969 16.5001 9.86582 16.5001 8.99993C16.5 8.12268 16.348 7.28142 16.0714 6.49923Z" fill="#E12A28"/>
<path d="M11.8363 6.49931C11.5428 4.15378 10.8213 2.16009 9.6734 1.53081C9.45136 1.51115 9.22684 1.5 8.99973 1.5C5.73716 1.5 2.96261 3.58375 1.93092 6.49279C1.93009 6.49491 1.92937 6.49694 1.92854 6.49931C1.65194 7.28151 1.5 8.12276 1.5 8.99995C1.5 9.86596 1.64861 10.6969 1.9186 11.4708C1.9211 11.4778 1.92335 11.4848 1.92582 11.4921C2.95346 14.4086 5.73181 16.4996 8.9997 16.4996C9.22684 16.4996 9.45136 16.4885 9.67337 16.4686C10.8261 15.8367 11.5489 13.8289 11.8401 11.4707C12.0382 9.86657 12.0369 8.10141 11.8363 6.49931Z" fill="#ED3432"/>
<path d="M8.93247 5.15601L9.82334 7.8981H12.7067L10.374 9.59251L11.265 12.3349L8.93247 10.6401L6.59985 12.3349L7.49085 9.59251L5.1582 7.8981H8.0415L8.93247 5.15601Z" fill="#FDCE0C"/>
</svg>
